<svg id="4f20bcfb-c334-496e-893b-3b4e1ff78c99" data-name="Layer 1" xmlns="http://www.w3.org/2000/svg" viewBox="0 0 239.32 261.6"><defs><style>.b67236b1-dd65-419a-9f80-d6b789acd0ae,.bd254d5a-c73f-47f3-be04-298c5013d383,.c9627ea0-a7ac-4e67-b129-b22dda328e21{fill:#231f20;}.\38 ae7e2cc-4762-4833-9e8b-7018dc26f4b7,.b89f8428-2444-4164-acb9-3d904c014578{fill:#a6ce39;}.b67236b1-dd65-419a-9f80-d6b789acd0ae{stroke:#231f20;stroke-miterlimit:10;stroke-width:0.75px;}.b89f8428-2444-4164-acb9-3d904c014578,.bd254d5a-c73f-47f3-be04-298c5013d383{fill-rule:evenodd;}</style></defs><title style="text-shadow: rgba(153, 183, 46, 0.3) 0px 0px 0px !important;">logo_2020</title><path class="c9627ea0-a7ac-4e67-b129-b22dda328e21" d="M210.11,218.94c0-5,7.35-5.6,12-5.6h1.54v.84c0,4.34-3.36,9.38-8.12,9.38-3.64,0-5.39-2.24-5.39-4.62m-9,.42c0,7.14,5.8,11.13,12.17,11.13a11.62,11.62,0,0,0,10.78-6.3h.14s-.07.63-.07,1.54c0,2.1,1.26,3.92,4.55,3.92h8v-7.49h-2.8a1.4,1.4,0,0,1-1.54-1.54v-13.3c0-8-3.5-14.2-15.4-14.2-3.71,0-13.08.7-13.08,7.34v3.78h8.25v-1.89c0-2,3.15-2.38,4.76-2.38,4.55,0,6.58,1.89,6.58,7v.28h-1.12C216.55,207.25,201.16,208.16,201.16,219.36Zm-18.51-2.8c0,12,9.87,13.44,14.84,13.44a16.36,16.36,0,0,0,2.73-.21V222a8.17,8.17,0,0,1-1.61.14c-2.45,0-7.07-.84-7.07-6.72V201h8.12V194h-8.12v-9.73h-8.68V194H178V201h4.62Zm-33.41,7.56a19.57,19.57,0,0,0,14.84,6.37c7.76,0,13.71-4.2,13.71-10.92,0-11.9-19-10.78-19-16.38,0-2.1,2.17-3.21,5.32-3.21,2,0,4.48.84,4.48,2.51v1.75h7.83v-3.71c0-5.8-7.7-7.41-12.52-7.41-7.42,0-13.86,3.29-13.86,10.42,0,11.55,18.83,11.48,18.83,16.52,0,2.38-2.1,3.5-4.83,3.5-6.09,0-10.64-5.25-10.64-5.25Zm-13,.77c0,3.36,1.39,4.76,4.68,4.76h8.47v-7.49h-2.8a1.4,1.4,0,0,1-1.54-1.54V198.71c0-3.28-1.4-4.75-4.69-4.75h-8.46v7.55h2.8a1.37,1.37,0,0,1,1.54,1.54Zm-17.32,0c0,3.36,1.4,4.76,4.76,4.76H132v-7.49h-2.73a1.4,1.4,0,0,1-1.54-1.54v-35.9c0-.2,0-.4,0-.58h-8.87v40.75Zm-41-8c0,9.73,4.69,13.58,12.32,13.58a13.47,13.47,0,0,0,12.31-7.42h.14s-.07.77-.07,1.61v1c0,2.52,1.61,4,4.69,4h8.19v-7.49h-2.8a1.4,1.4,0,0,1-1.54-1.54V194h-8.89v16.37c0,6.37-3.56,12-10,12-4.41,0-5.53-2.94-5.53-7.28V198.65c0-3.22-1.4-4.69-4.69-4.69H73.5v7.55h2.8a1.37,1.37,0,0,1,1.54,1.54Zm-30.05,2c0-5,7.35-5.6,12-5.6H61.3v.84c0,4.34-3.36,9.38-8.12,9.38C49.54,223.56,47.79,221.32,47.79,218.94ZM15.22,204.66V187.73h7.49c5,0,8,3.29,8,8.4s-2.94,8.53-8.12,8.53ZM6.05,230.51h9.17v-18h9c9.31,0,15.81-6.72,15.81-16.37S33.55,180,24.25,180H2.12v7.77H6.05Zm32.78-11.15c0,7.14,5.81,11.13,12.18,11.13a11.62,11.62,0,0,0,10.78-6.3h.14s-.07.63-.07,1.54c0,2.1,1.26,3.92,4.55,3.92h8v-7.49h-2.8a1.39,1.39,0,0,1-1.53-1.54v-13.3c0-8-3.5-14.2-15.4-14.2-3.71,0-13.09.7-13.09,7.34v3.78h8.26v-1.89c0-2,3.15-2.38,4.76-2.38,4.55,0,6.58,1.89,6.58,7v.28H60C54.23,207.25,38.83,208.16,38.83,219.36Z" transform="translate(0 -0.07)"></path><path class="8ae7e2cc-4762-4833-9e8b-7018dc26f4b7" d="M109,127.26h14.12a38.58,38.58,0,0,0,38.47-38.47V50.33H123.16A38.6,38.6,0,0,0,84.69,88.79v51.67H73.92V88.79a49.37,49.37,0,0,1,49.24-49.24H172.4V88.79A49.39,49.39,0,0,1,123.16,138H98.27V88.79a24.37,24.37,0,0,1,7.18-17.27h0a24.37,24.37,0,0,1,17.26-7.19h25.34V88.79a24.41,24.41,0,0,1-7.19,17.27h0a24.39,24.39,0,0,1-17.28,7.18H109Zm5.09-24.79h9.47a13.64,13.64,0,0,0,9.66-4h0a13.63,13.63,0,0,0,4-9.66V75.11H122.72a13.67,13.67,0,0,0-9.66,4v0a13.63,13.63,0,0,0-4,9.65v9.13a106.76,106.76,0,0,1,19.72-14.15A114.76,114.76,0,0,0,114.13,102.47Z" transform="translate(0 -0.07)"></path><path class="c9627ea0-a7ac-4e67-b129-b22dda328e21" d="M109,138H98.27V88.79a24.37,24.37,0,0,1,7.18-17.27h0a24.37,24.37,0,0,1,17.26-7.19h25.34V88.79a24.43,24.43,0,0,1-7.19,17.27h0a24.39,24.39,0,0,1-17.28,7.18H109Z" transform="translate(0 -0.07)"></path><path class="8ae7e2cc-4762-4833-9e8b-7018dc26f4b7" d="M114.13,102.47h9.47a13.64,13.64,0,0,0,9.66-4h0a13.63,13.63,0,0,0,4-9.66V75.11H122.72a13.64,13.64,0,0,0-9.66,4v0a13.63,13.63,0,0,0-4,9.65v9.13a106.76,106.76,0,0,1,19.72-14.15,114.76,114.76,0,0,0-14.63,18.7" transform="translate(0 -0.07)"></path><path class="b67236b1-dd65-419a-9f80-d6b789acd0ae" d="M225.61,248.44a6.05,6.05,0,1,1,12.1,0,6.05,6.05,0,1,1-12.1,0m-1.23,0a7.29,7.29,0,1,0,14.57,0,7.29,7.29,0,1,0-14.57,0Zm-13.94,7.12h1.18v-6.87a7,7,0,0,1,.22-1.91,6,6,0,0,1,5.69-4.48c3.15,0,3.46,2.31,3.46,4.76v6.86c0,1.16.47,1.64,1.63,1.64H224v-1.07h-1.21a.55.55,0,0,1-.62-.62v-7.23c0-3.32-1-5.49-4.64-5.49a6.3,6.3,0,0,0-5.91,3.83h-.06a11.05,11.05,0,0,0,.06-1.16V243c0-1.07-.48-1.55-1.63-1.55h-1.38v1.07h1.21a.55.55,0,0,1,.62.62Zm-4.83-1.64c0,1.16.48,1.64,1.63,1.64h1.38v-1.07h-1.21a.55.55,0,0,1-.62-.62V243.12c0-1.15-.48-1.63-1.63-1.63h-1.38v1.07H205a.55.55,0,0,1,.62.62Zm-.17-16h1.3v-2.06h-1.3Zm-12.17,15.55a6.36,6.36,0,0,0,5.18,2.42c2.67,0,4.73-1.54,4.73-3.8,0-4.64-8.11-3.76-8.11-7.37,0-1.6,1.35-2.42,3.63-2.42,1,0,2.73.45,2.73,1.64v.67h1.18v-1.07c0-1.86-2.75-2.39-4-2.39-2.79,0-4.81,1.24-4.81,3.66,0,4.53,8.1,3.74,8.1,7.28,0,1.75-1.66,2.65-3.46,2.65a5.49,5.49,0,0,1-4.36-2.14Zm-13.57,2.09h1.18v-6.87a7.36,7.36,0,0,1,.22-1.91,6,6,0,0,1,5.69-4.48c3.15,0,3.46,2.31,3.46,4.76v6.86c0,1.16.48,1.64,1.63,1.64h1.38v-1.07h-1.21a.55.55,0,0,1-.62-.62v-7.23c0-3.32-1-5.49-4.64-5.49a6.3,6.3,0,0,0-5.91,3.83h-.06a11.05,11.05,0,0,0,.06-1.16V243c0-1.07-.48-1.55-1.63-1.55h-1.38v1.07h1.21a.55.55,0,0,1,.62.62Zm-13.38-1.64c0,1.16.48,1.64,1.63,1.64h8.36c1.15,0,1.63-.48,1.63-1.64v-1.49h-1.18v1.38a.55.55,0,0,1-.62.62h-8a.55.55,0,0,1-.62-.62v-7.62h7.85v-1.13h-7.85V237h7.76a.55.55,0,0,1,.62.62V239h1.18v-1.49c0-1.15-.47-1.63-1.63-1.63h-11V237h1.83Zm-22.1-6.69a5.48,5.48,0,0,1,5.49-5c2.33,0,4.38,1.55,4.52,5Zm-1.32,1.32a7.07,7.07,0,0,0,7.26,7.34,7.66,7.66,0,0,0,5-1.94l-.64-1a6.37,6.37,0,0,1-4.36,1.77c-3.27,0-6-2.34-6-6.41h11.29s.05-.46.05-.76c0-3.41-1.91-6.42-5.74-6.42C146.13,241.15,142.9,243.8,142.9,248.55Zm-8.46,6.19c-2.87,0-4.89-2.42-4.89-6.22s2.25-6.24,5-6.24c3.3,0,4.9,3.09,4.9,6.21C139.45,252.91,137,254.74,134.44,254.74Zm-6.13-6.22c0,4.36,2.31,7.37,6.08,7.37a5.23,5.23,0,0,0,5-3h.06a8.56,8.56,0,0,0-.06,1.07c0,1.16.48,1.64,1.63,1.64h1.38v-1.07h-1.21a.55.55,0,0,1-.62-.62V237.49c0-1.15-.47-1.63-1.63-1.63h-1.38v1.07h1.21a.55.55,0,0,1,.62.62V243a11,11,0,0,0,.06,1.15h-.06a5.28,5.28,0,0,0-4.81-3C130.93,241.15,128.31,244.05,128.31,248.52Zm-22.13-.08a6.05,6.05,0,1,1,12.1,0,6.05,6.05,0,1,1-12.1,0Zm-1.24,0a7.29,7.29,0,1,0,14.58,0,7.29,7.29,0,1,0-14.58,0ZM93.73,238.9h1.13c0-.65.14-2,1.12-2,1.32,0,1.66,2.08,3.55,2.08,1.54,0,2.33-1,2.33-3h-1.12c0,.64-.14,2-1.13,2-1.32,0-1.66-2.08-3.54-2.08C94.52,235.86,93.73,236.9,93.73,238.9Zm-.59,12.83c0-3.66,5.12-3.66,7.51-3.66h.9v.76c0,2.79-1.74,6-4.81,6C94.35,254.8,93.14,253.22,93.14,251.73Zm-1.24.08c0,2.82,2.51,4.08,4.79,4.08a5.24,5.24,0,0,0,4.86-3.32h.06a12,12,0,0,0-.06,1.27c0,1.27.48,1.72,1.63,1.72h1.38v-1.07h-1.21a.55.55,0,0,1-.62-.62v-7.4c0-3-.92-5.32-5.23-5.32-1.15,0-4.33.48-4.33,2.14v1.29h1.18v-1c0-1.19,2.39-1.38,3.12-1.38,2.93,0,4.08,1.18,4.08,4.53V247h-.93C98.12,247,91.9,247,91.9,251.81Zm-13.24-3.26a7,7,0,0,0,6.17,7.26l-.51,2.36a2.24,2.24,0,0,1,.34,0c1.09,0,1.71.43,1.71,1.07,0,.82-.76,1-1.52,1a4.83,4.83,0,0,1-1.15-.14v1.07a5.62,5.62,0,0,0,1.24.12c1.32,0,2.56-.6,2.56-2.14a2,2,0,0,0-1.94-1.92l.25-1.35a7.29,7.29,0,0,0,5.43-2.19l-.62-1a6.2,6.2,0,0,1-4.7,2,6.22,6.22,0,0,1,0-12.44c1.35,0,3.77.65,3.77,2v.82h1.18v-1.07c0-2.28-3.43-2.93-5-2.93A7.16,7.16,0,0,0,78.66,248.55Zm-3.56,5.37c0,1.16.48,1.64,1.64,1.64h1.38v-1.07H76.91a.55.55,0,0,1-.62-.62V243.12c0-1.15-.48-1.63-1.64-1.63H73.28v1.07h1.21a.54.54,0,0,1,.61.62Zm-.16-16h1.29v-2.06H74.94ZM59.81,250.41c0,3.57,1.18,5.48,4.65,5.48a6.21,6.21,0,0,0,5.76-3.82h.06a10.73,10.73,0,0,0-.06,1.15V254c0,1.07.48,1.55,1.63,1.55h1.38v-1.07H72a.55.55,0,0,1-.62-.62V241.49H70.22v6.86c0,3.29-2.25,6.39-5.76,6.39-3.16,0-3.47-2.31-3.47-4.75v-7c0-1.07-.47-1.55-1.63-1.55H58v1.07h1.21a.55.55,0,0,1,.62.62Zm-7.27.05c0,4.67,3,5.21,4.47,5.21a3.73,3.73,0,0,0,.71-.06v-1.1a3.18,3.18,0,0,1-.65.06c-1.13,0-3.35-.48-3.35-4.19v-7.82h3.69v-1.07H53.72v-3.91H52.54v3.91H50.68v1.07h1.86Zm-5,3.46c0,1.16.48,1.64,1.63,1.64h1.38v-1.07H49.32a.55.55,0,0,1-.62-.62V243.12c0-1.15-.48-1.63-1.63-1.63H45.69v1.07H46.9a.55.55,0,0,1,.62.62Zm-.17-16h1.29v-2.06H47.35ZM40,250.46c0,4.67,3,5.21,4.47,5.21a3.73,3.73,0,0,0,.71-.06v-1.1a3.18,3.18,0,0,1-.65.06c-1.13,0-3.35-.48-3.35-4.19v-7.82h3.69v-1.07H41.2v-3.91H40v3.91H38.16v1.07H40Zm-12.37,3a6.38,6.38,0,0,0,5.18,2.42c2.67,0,4.73-1.54,4.73-3.8,0-4.64-8.11-3.76-8.11-7.37,0-1.6,1.36-2.42,3.63-2.42,1,0,2.73.45,2.73,1.64v.67H37v-1.07c0-1.86-2.75-2.39-4-2.39-2.79,0-4.81,1.24-4.81,3.66,0,4.53,8.1,3.74,8.1,7.28,0,1.75-1.66,2.65-3.46,2.65a5.49,5.49,0,0,1-4.36-2.14Zm-13.57,2.09h1.18v-6.87a7,7,0,0,1,.23-1.91,6,6,0,0,1,5.68-4.48c3.15,0,3.46,2.31,3.46,4.76v6.86c0,1.16.48,1.64,1.63,1.64h1.38v-1.07H26.43a.55.55,0,0,1-.62-.62v-7.23c0-3.32-1-5.49-4.64-5.49A6.3,6.3,0,0,0,15.26,245H15.2a11.05,11.05,0,0,0,.06-1.16V243c0-1.07-.48-1.55-1.63-1.55H12.25v1.07h1.21a.55.55,0,0,1,.62.62Zm-7.25,0h4.81v-1.13H9.84V237h1.8v-1.13H6.83V237h1.8v17.44H6.83Z" transform="translate(0 -0.07)"></path><path class="b89f8428-2444-4164-acb9-3d904c014578" d="M140.26,181.63H145v4.75a4.75,4.75,0,0,1-4.75,4.75h-4.75v-4.75a4.77,4.77,0,0,1,4.75-4.75" transform="translate(0 -0.07)"></path><path class="bd254d5a-c73f-47f3-be04-298c5013d383" d="M130.69,161.11a16.15,16.15,0,0,1,.39,3.91c0,3-6.38,4.26-8.87,4.61-4.5.64-11.71.24-15.35-2.08-2.63-1.68-2-2.4-1.76-6.24H4.41L0,168.93H59.39l1,0c.39,0,.74,0,1.14,0H98.26c4.51,8.52,16,8.78,24.81,8.2a5.46,5.46,0,0,0,1.39-.26c4.23-.92,6.78-1.31,10.36-4.2a12.74,12.74,0,0,0,2.9-3.74h98.06l-4.41-7.62H136c-2,0-3.28-.2-5.27-.2" transform="translate(0 -0.07)"></path><polygon class="c9627ea0-a7ac-4e67-b129-b22dda328e21" points="11.4 149.18 105.19 154.15 105 157.84 9.32 152.77 11.4 149.18"></polygon><polygon class="c9627ea0-a7ac-4e67-b129-b22dda328e21" points="226.63 153.06 130.77 157.84 130.6 154.15 224.55 149.47 226.63 153.06"></polygon><path class="8ae7e2cc-4762-4833-9e8b-7018dc26f4b7" d="M120.54.07a89.88,89.88,0,0,1,73.39,141.76l-9.67.48a82.48,82.48,0,1,0-125.7,2.05l-10-.53A89.87,89.87,0,0,1,120.54.07" transform="translate(0 -0.07)"></path></svg>
