<svg xmlns="http://www.w3.org/2000/svg" width="252.06" height="103.846" viewBox="0 0 350.97 144.59" shape-rendering="geometricPrecision" image-rendering="optimizeQuality" fill-rule="evenodd" xmlns:v="https://vecta.io/nano"><g fill="#39346d" fill-rule="nonzero"><path d="M42.43 122.6l-1.91 1.43-2.68 1.78-2.45 1.44-1.78.91c-.7.34-1.44.58-2.23.74a12.01 12.01 0 0 1-2.41.23 3.61 3.61 0 0 1-.86-.12l-1.01-.28-1.12-.32c-.31-.09-.57-.15-.77-.16l-.31-.32-.74-.11c-.32-.02-.72-.18-1.16-.5-.46-.33-.94-.77-1.48-1.34-.51-.54-.93-1.04-1.24-1.53-.32-.48-.54-.92-.67-1.32l-.69-2.3-.54-1.9c-.12-.48-.17-.8-.15-.94l.28-1.21-.32-1.01c-.08-.27-.11-.48-.11-.62s.04-.58.13-1.32l.36-3.05.38-.91.38-1.21-.08-.59c0-.15.03-.31.09-.49a6.53 6.53 0 0 1 .24-.63l1.18-2.65 1.18-2.6c.34-.64.78-1.31 1.32-1.98a27.69 27.69 0 0 1 1.85-2.12c.16-.17.34-.41.57-.7l.8-.94c.29-.17.64-.45 1.06-.81l1.51-1.41a7.79 7.79 0 0 0 .61-.29l.88-.46c.09-.05.19-.15.32-.27a3.03 3.03 0 0 1 .45-.4c.18-.18.88-.45 2.05-.8 1.18-.36 1.95-.54 2.31-.54.79 0 1.45.06 2 .17.55.12.98.3 1.31.55l.81.16c.69.16 1.19.7 1.51 1.64.32.93.49 2.27.49 4.02l-.03 1.97-.08 1.01-.34 2.02-.51 2.83c-.02.28-.13.76-.34 1.41l-.84 2.42-.92 2.4c-.26.55-.47.85-.65.9l-2.21.59c-.38 0-.64-.03-.8-.09-.15-.06-.23-.16-.23-.31 0-.13.03-.32.09-.59s.09-.46.09-.56l-.15-2.07c0-.26.07-.75.2-1.48l.61-2.82.78-2.96c.22-.73.4-1.18.53-1.36.5-.48.87-.94 1.09-1.38.24-.44.35-.83.35-1.2 0-.49-.11-.93-.34-1.31a2.17 2.17 0 0 0-1.04-.86l-1.35-.31a12.85 12.85 0 0 1-1.35-.37c-.36.15-.68.26-.96.32l-.74.19c-1.15.2-2.24.75-3.3 1.66-1.05.91-2.06 2.17-3.01 3.78-.79 1.4-1.43 2.8-1.9 4.2a21.3 21.3 0 0 0-.98 4.22l-.25 1.59-.44 2.24.41 1.47-.25 2.44c0 .09.07.27.23.55l.72 1.23a6.28 6.28 0 0 1 .52 1.07c.15.41.27.88.36 1.4.04.12.1.26.19.4.1.14.2.26.32.35l.74.61c.74.82 1.52 1.44 2.35 1.86a5.78 5.78 0 0 0 2.65.63c.09 0 .4-.05.96-.14l2.28-.43c.17-.13.39-.26.67-.37l1.01-.41c.34-.36.68-.61 1.02-.77a2.16 2.16 0 0 1 .94-.23l.32-.46a4.03 4.03 0 0 1 .5-.59c.51-.22.97-.5 1.4-.85a10.14 10.14 0 0 0 1.22-1.23l1.05 2.47z"/><path d="M41.39 120.13a3.83 3.83 0 0 0 .38-.49l.45-.68 1.98-1.41a11.01 11.01 0 0 1 1.11-1.15l1.85-1.71a3.55 3.55 0 0 1 .43-.69 6.1 6.1 0 0 1 .7-.77l.72-.65.67-.6.73-.8.71-.78c.27-.25.55-.45.84-.59s.61-.21.95-.21c.38 0 .66.05.86.15.19.1.3.24.31.41l-.53 1.23.15.25 1.77-.68c.43-.14.7-.21.82-.21 1.24 0 2.18.39 2.8 1.19s.94 2 .94 3.6c0 .31-.04.67-.11 1.08a9.18 9.18 0 0 1-.33 1.33c-.17.54-.35.98-.55 1.34-.19.37-.38.62-.55.78.07.2.15.36.24.46a.43.43 0 0 0 .33.15c.13 0 .27-.05.42-.14a4.07 4.07 0 0 0 .53-.4l.5 1.22.5 1.24-.89.84-.93.78c-.39.35-.76.59-1.11.74-.35.16-.69.23-1.03.23-.39 0-.72-.09-.98-.29-.25-.2-.46-.48-.61-.84-.43.59-.94 1.14-1.55 1.64a8.85 8.85 0 0 1-2 1.22 8.89 8.89 0 0 1-1.17.5 2.94 2.94 0 0 1-.95.17c-.09 0-.25.04-.5.11s-.45.11-.6.11c-.97 0-1.86-.43-2.63-1.3-.79-.86-1.18-1.83-1.18-2.89 0-.43.1-1 .28-1.71l.29-1.24c0-.13-.04-.23-.12-.31-.07-.07-.18-.12-.32-.12-.09 0-.29.14-.62.4l-1.37 1.15a2.61 2.61 0 0 0-.18.32c-.07.15-.18.3-.33.48l-.47-1.24-.58-1.22zm12.34-4.85c-.09.02-.21.11-.37.28-.17.16-.32.38-.47.63l-.82 1.33c-.19.22-.38.38-.6.49-.21.12-.45.2-.73.26-.18.02-.35.19-.54.52-.18.33-.37.81-.56 1.44l-.41 1.42c-.09.39-.12.72-.12 1 0 .49.11.87.36 1.12.24.25.6.37 1.09.37.79 0 1.5-.23 2.17-.69.66-.46 1.27-1.14 1.85-2.05l.76-.97c.14-.1.25-.27.33-.52a6.77 6.77 0 0 0 .26-.9l.46-1.53c-.15-.53-.3-.96-.43-1.27-.14-.31-.28-.5-.41-.58-.09-.05-.27-.11-.57-.17l-1.25-.2z"/><path d="M59.92 120.13c.16-.17.31-.39.46-.65a6.39 6.39 0 0 1 .62-.84l1.71-1.54c.07-.05.11-.12.11-.21.01-.09.01-.21.01-.37-.02-.23-.03-.42-.07-.56 0-.41.07-1.1.23-2.07.15-.96.29-1.54.41-1.74l-.16-.5a39.83 39.83 0 0 1 .94-3.92l1.37-4.62c.18-.28.35-.65.54-1.09l.64-1.48c.29-.93.67-1.9 1.15-2.92l1.61-3.14c.81-1.41 1.51-2.47 2.14-3.18.62-.71 1.18-1.07 1.68-1.07.99 0 1.66.2 2.03.6s.55 1.15.55 2.26c0 .28-.04.73-.14 1.33-.1.59-.14 1.05-.14 1.35s-.1.73-.28 1.28c-.19.56-.28 1.07-.28 1.53-.02.15-.06.28-.13.43l.03.37c-.07.25-.17.56-.31.91l-.54 1.28-.46 1.55-.66 1.93-.39.65-.53.87c-.05.24-.14.5-.26.8-.11.3-.28.66-.48 1.07a5.19 5.19 0 0 1-.41.69l-.61.97a7.02 7.02 0 0 0-.33.67l-.41.91c-.18.31-.43.69-.74 1.12l-1.04 1.58-1.64 2.81c0 1.74.32 3.04.98 3.92.66.89 1.64 1.33 2.96 1.33.08 0 .33-.06.76-.19.43-.12 1.02-.32 1.76-.59.22-.14.49-.34.8-.6l1.04-.93 1 2.47-1.33 1.26-1.36 1.26c-.53.47-1.06.82-1.61 1.06a3.81 3.81 0 0 1-1.61.37c-.27 0-.68-.03-1.25-.09l-1.28-.1c-.95 0-1.74-.4-2.36-1.21-.62-.8-1.06-2.01-1.31-3.62a2.41 2.41 0 0 0-.14-.43c-.06-.13-.17-.27-.32-.43l-.78.83-1.09 1.1-1.05-2.47zm12.22-20.98l-.17-.11c-.95.96-1.68 1.87-2.16 2.73-.49.85-.73 1.68-.73 2.49 0 .12-.06.33-.17.63-.11.29-.28.67-.5 1.13l-.85 1.82-.74 2.43c-.17.63-.25 1.07-.25 1.34l.16.21c.15-.02.34-.17.56-.48.22-.3.48-.75.77-1.33a7.76 7.76 0 0 1 .59-1.12l.87-1.53c.27-.39.71-1.4 1.3-3.02.6-1.63.93-2.66.97-3.11a7.5 7.5 0 0 1 .14-1.06l.22-1.02z"/><path d="M74.37 120.13a6.88 6.88 0 0 1 .8-1.12c.32-.38.74-.77 1.24-1.17l.16-1.06.1-1.06c.05-.25.13-.54.25-.88l.37-1.1.63-1.47c.26-.59.61-1.25 1.04-1.98l1.12-1.35 1.18-1.48a6.07 6.07 0 0 1 .61-.46l.67-.48c.2-.07.44-.13.69-.18a4.31 4.31 0 0 1 .85-.08c.42 0 .77.05 1.03.14.26.08.48.24.66.45.11.15.23.36.34.65a8.21 8.21 0 0 1 .32 1.04l.18 1.18c0-.11-.03-.06-.09.13l-.27.94-.23.85c-.24.86-.78 1.85-1.61 2.97-.84 1.12-1.97 2.41-3.39 3.86a2.13 2.13 0 0 0-.31.47 1.53 1.53 0 0 0-.12.6c0 .37.06.7.19.99a1.48 1.48 0 0 0 .55.65c.14.1.36.21.66.32l1.07.29c.67-.05 1.29-.17 1.83-.35a7.1 7.1 0 0 0 1.47-.66 6.71 6.71 0 0 1 .41-.24c.19-.1.38-.24.57-.4l.59 1.4.41 1.07c-.97 1.01-1.86 1.77-2.66 2.29-.8.51-1.52.77-2.2.77-.27.18-.59.31-.94.39s-.76.12-1.24.12c-.63 0-1.19-.1-1.68-.29-.49-.2-.89-.49-1.23-.87-.17-.18-.34-.45-.51-.8-.18-.36-.35-.77-.54-1.26-.15-.39-.3-.69-.44-.87-.13-.19-.29-.28-.46-.28-.13 0-.29.06-.45.2-.18.14-.36.34-.57.6-.07-.27-.19-.6-.37-1l-.68-1.47zm8.2-8.67c-.38 0-.88.51-1.52 1.54s-.95 1.79-.95 2.28c0 .1.02.18.06.23s.14.06.27.06c.19 0 .35-.1.46-.31l.34-.58.55-.58.52-.61c.21-.25.37-.49.46-.75.1-.25.16-.5.16-.75a.75.75 0 0 0-.09-.39c-.06-.1-.15-.15-.27-.15zm8.39-12.44c0 .21-.03.42-.09.62a2.72 2.72 0 0 1-.24.58 2.35 2.35 0 0 1-.45.6c-.2.2-.43.38-.68.55l-.49.31-.53.25c-.12.05-.26.18-.42.37-.17.2-.3.32-.4.38-.2.13-.39.2-.58.23-.18.03-.37.11-.58.26-.2.14-.38.28-.52.44s-.31.3-.52.44c-.08.07-.24.14-.47.2s-.38.12-.47.17c-.16.11-.28.27-.37.46-.1.19-.19.32-.3.37-.21.12-.48.22-.82.29-.17 0-.32-.09-.46-.27a1.11 1.11 0 0 1-.2-.67c0-.13-.02-.27-.05-.4-.04-.15-.01-.29.08-.46.05-.12.17-.27.38-.43a4.23 4.23 0 0 0 .53-.48c.1-.11.24-.28.41-.52.18-.25.31-.42.44-.52l.64-.6.54-.52c.31-.28.58-.5.81-.66.23-.15.39-.27.5-.38l.45-.49c.15-.17.27-.34.38-.49a1.89 1.89 0 0 0 .31-.81 3.03 3.03 0 0 1 .19-.71c.16-.32.35-.56.59-.72s.49-.24.77-.24c.17 0 .32.05.45.15a1.71 1.71 0 0 1 .38.38l.26.4.2.4c.11.26.18.54.24.8a3.29 3.29 0 0 1 .09.72z"/><path d="M87.27 120.13c.12-.14.27-.34.44-.59a12.83 12.83 0 0 1 .65-.89c.23-.19.49-.46.78-.79.3-.32.62-.73.98-1.23l.51-1.01.67-1.3c.11-.48.35-1.03.73-1.65.38-.61.89-1.31 1.57-2.08l2.95-3.47c.53-.82 1.11-1.44 1.73-1.83.63-.39 1.29-.59 2.02-.59.47 0 .84.22 1.09.67s.38 1.11.38 1.98c0 .32-.21.82-.63 1.5s-1.06 1.55-1.92 2.6l-1.66 1.97-1.72 1.99-.81.81-.91.98-.33 1.26c0 .69.04 1.3.12 1.81.09.5.22.94.39 1.3a18.99 18.99 0 0 1 .55.84l1.15 1.7a3.9 3.9 0 0 0 .43.54c.17.17.37.36.59.53.25-.11.75-.59 1.48-1.44l2.97-3.63 1 2.47-.68.87-1.22 1.74-1.67 2.41c0 .17.08.38.24.61l.6.78c.45.54.82 1.23 1.15 2.09.31.86.56 1.9.73 3.14-.02.09-.03.24-.06.43-.03.2-.05.42-.06.68-.21 2.06-1.42 4.11-3.64 6.17-2.21 2.06-4.3 3.08-6.27 3.08-.91 0-1.64-.12-2.17-.37-.54-.24-.92-.6-1.15-1.08-.09-.24-.15-.69-.2-1.37l-.08-2.71c0-.11.04-.32.14-.63l.47-1.28c.12-.36.29-.72.51-1.12l.67-1.24.74-1.1.71-1.08 1.46-1.66c.32-.34.58-.66.76-.96s.26-.58.26-.8l-1.74-2.41c-.62-.8-1.12-1.61-1.51-2.41-.38-.8-.64-1.63-.75-2.47-.02-.11-.09-.27-.21-.51l-1.16 1.21c-.07-.27-.19-.6-.37-1l-.68-1.47zm8.43 11.29c-.1 0-.33.25-.7.75-.37.49-.87 1.23-1.5 2.22l-1.08 1.79-1.12 1.79c-.14.2-.34.67-.59 1.4s-.39 1.2-.39 1.39c0 .34.1.59.27.75.18.16.46.24.83.25 1.32-.01 2.67-.75 4.05-2.24s2.07-2.92 2.07-4.3c0-.29-.04-.62-.15-1.01-.1-.38-.24-.81-.41-1.27-.22-.52-.44-.91-.64-1.15-.21-.26-.42-.37-.65-.37z"/><path d="M101.36 120.13l.16-.18.07-.27c.46-.66 1.28-1.52 2.44-2.58s1.96-1.92 2.41-2.58c.17-.28.37-.49.6-.62.22-.12.44-.18.66-.18.59 0 1.1.16 1.51.47s.68.79.81 1.41l.33 1.67.26 1.7.43 1.62c.17.72.3 1.13.38 1.24a.78.78 0 0 0 .38.38c.18.08.38.12.64.12.31 0 .62-.05.94-.17.32-.11.65-.31.99-.6l.8-.7.82-.71 1.05 2.47c-.27.28-.64.61-1.09.98l-1.63 1.28c-.7.53-1.3.93-1.79 1.19-.5.27-.87.39-1.13.39-1.55 0-2.55-.19-3.02-.57-.45-.37-.97-1.42-1.53-3.13-.07-.16-.17-.32-.31-.52l-.46-.69c-.21-.41-.38-.72-.54-.92-.15-.21-.28-.31-.39-.31-.27 0-.64.19-1.09.58-.46.38-1.02.96-1.69 1.73l-.32-.83-.41-1.12a1.36 1.36 0 0 0-.13-.3.74.74 0 0 0-.18-.21zm10.68-21.12c.43 0 .74.09.94.27s.3.44.3.78l-.25 1.26-.46 1.58-.29.89c-.16.38-.37.73-.63 1.02s-.59.56-.96.8c-.39.28-.72.48-.99.6-.26.11-.45.16-.55.15l-.83-.1-.78-.04c-.23-.13-.4-.37-.53-.72-.13-.36-.19-.84-.19-1.44 0-.54.31-1.22.94-2.02.62-.81 1.17-1.25 1.65-1.31l1.02-1.28c.17-.13.39-.23.66-.31s.59-.12.95-.12z"/><path d="M116.03 120.13a3.83 3.83 0 0 0 .38-.49l.45-.68 1.98-1.41a12.17 12.17 0 0 1 1.11-1.15l1.85-1.71a3.55 3.55 0 0 1 .43-.69 6.1 6.1 0 0 1 .7-.77l.72-.65.67-.6.73-.8.71-.78c.27-.25.55-.45.84-.59s.61-.21.95-.21c.38 0 .66.05.86.15.19.1.3.24.31.41l-.53 1.23.15.25 1.77-.68c.43-.14.7-.21.82-.21 1.24 0 2.18.39 2.8 1.19s.94 2 .94 3.6c0 .31-.04.67-.11 1.08a9.18 9.18 0 0 1-.33 1.33c-.17.54-.35.98-.55 1.34-.19.37-.38.62-.55.78.07.2.15.36.24.46a.43.43 0 0 0 .33.15c.13 0 .27-.05.42-.14a4.07 4.07 0 0 0 .53-.4l.5 1.22.5 1.24-.89.84-.93.78c-.39.35-.76.59-1.11.74-.35.16-.69.23-1.03.23-.39 0-.72-.09-.98-.29-.25-.2-.46-.48-.61-.84a9.19 9.19 0 0 1-1.55 1.64 8.85 8.85 0 0 1-2 1.22 8.89 8.89 0 0 1-1.17.5 2.94 2.94 0 0 1-.95.17c-.09 0-.25.04-.5.11s-.46.11-.6.11c-.97 0-1.86-.43-2.63-1.3-.79-.86-1.18-1.83-1.18-2.89 0-.43.1-1 .28-1.71l.29-1.24c0-.13-.04-.23-.12-.31-.07-.07-.18-.12-.31-.12-.09 0-.29.14-.62.4l-1.37 1.15a2.61 2.61 0 0 0-.18.32c-.07.15-.18.3-.33.48l-.47-1.24a12.42 12.42 0 0 0-.58-1.22zm12.34-4.85c-.09.02-.21.11-.37.28-.17.16-.32.38-.47.63l-.82 1.33c-.19.22-.38.38-.6.49-.21.12-.45.2-.73.26-.18.02-.35.19-.54.52-.18.33-.37.81-.56 1.44l-.41 1.42c-.09.39-.12.72-.12 1 0 .49.11.87.36 1.12.24.25.6.37 1.09.37.79 0 1.5-.23 2.17-.69.66-.46 1.27-1.14 1.85-2.05l.76-.97c.14-.1.25-.27.33-.52a6.77 6.77 0 0 0 .26-.9l.46-1.53c-.15-.53-.3-.96-.43-1.27-.14-.31-.28-.5-.41-.58-.09-.05-.27-.11-.57-.17l-1.25-.2zm45.3 7.32l-1.91 1.43-2.68 1.78-2.45 1.44-1.78.91c-.7.34-1.44.58-2.23.74a12.01 12.01 0 0 1-2.41.23 3.61 3.61 0 0 1-.86-.12l-1.02-.28-1.12-.32c-.31-.09-.57-.15-.77-.16l-.31-.32-.74-.11c-.32-.02-.72-.18-1.16-.5-.46-.33-.94-.77-1.48-1.34-.51-.54-.93-1.04-1.24-1.53-.32-.48-.54-.92-.67-1.32l-.69-2.3-.54-1.9c-.12-.48-.17-.8-.15-.94l.28-1.21-.32-1.01c-.08-.27-.11-.48-.11-.62s.04-.58.13-1.32l.36-3.05.38-.91.38-1.21-.08-.59c0-.15.03-.31.09-.49a6.53 6.53 0 0 1 .24-.63l1.18-2.65 1.18-2.6c.34-.64.78-1.31 1.32-1.98.53-.68 1.16-1.39 1.85-2.12.16-.17.34-.41.57-.7l.8-.94c.29-.17.64-.45 1.06-.81l1.51-1.41a7.79 7.79 0 0 0 .61-.29l.87-.46c.09-.05.19-.15.32-.27a3.03 3.03 0 0 1 .45-.4c.18-.18.88-.45 2.05-.8 1.18-.36 1.95-.54 2.31-.54.79 0 1.45.06 2 .17.55.12.98.3 1.31.55l.81.16c.69.16 1.19.7 1.51 1.64.32.93.49 2.27.49 4.02l-.03 1.97-.08 1.01-.34 2.02-.51 2.83c-.02.28-.13.76-.34 1.41l-.84 2.42-.92 2.4c-.26.55-.47.85-.65.9l-2.21.59c-.38 0-.64-.03-.8-.09-.15-.06-.23-.16-.23-.31 0-.13.03-.32.09-.59s.09-.46.09-.56l-.15-2.07c0-.26.07-.75.2-1.48l.61-2.82.78-2.96c.22-.73.4-1.18.53-1.36.5-.48.87-.94 1.09-1.38.24-.44.35-.83.35-1.2 0-.49-.11-.93-.34-1.31a2.17 2.17 0 0 0-1.04-.86l-1.35-.31a12.85 12.85 0 0 1-1.35-.37c-.36.15-.68.26-.96.32l-.73.19c-1.15.2-2.24.75-3.3 1.66-1.05.91-2.06 2.17-3.01 3.78-.79 1.4-1.43 2.8-1.9 4.2a20.62 20.62 0 0 0-.98 4.22l-.25 1.59-.44 2.24.41 1.47-.25 2.44c0 .09.07.27.23.55l.72 1.23a6.28 6.28 0 0 1 .52 1.07c.15.41.27.88.36 1.4.04.12.1.26.19.4.1.14.2.26.32.35l.74.61c.74.82 1.52 1.44 2.35 1.86a5.78 5.78 0 0 0 2.65.63c.09 0 .4-.05.96-.14l2.28-.43c.17-.13.39-.26.67-.37l1.01-.41c.34-.36.68-.61 1.02-.77a2.16 2.16 0 0 1 .94-.23l.32-.46a4.03 4.03 0 0 1 .5-.59c.51-.22.97-.5 1.4-.85a10.14 10.14 0 0 0 1.22-1.23l1.05 2.47z"/><path d="M172.63 120.14l.82-1.18c1.25-1.07 2.27-2.1 3.08-3.09.8-1 1.37-1.92 1.73-2.77l-.25-1.29c.22-.45.77-.97 1.65-1.57.88-.61 1.59-.91 2.13-.91.59 0 1.08.18 1.48.54l1.16 1.12.41.3c.68.53 1.19 1.27 1.53 2.22.34.94.52 2.09.52 3.45 0 .71-.26 1.74-.8 3.06-.52 1.33-.8 2.34-.8 3.02 0 .09.03.16.1.21.05.05.14.08.24.08.23 0 .49-.1.8-.31.31-.2.63-.48.99-.84l1.63-1.54c.19-.1.42-.27.69-.5l.5 1.15.55 1.32-.52.51-.71.67-2.27 1.62-3.34 2.18c-.34.24-.73.42-1.17.57-.72 0-1.26-.11-1.62-.34-.36-.22-.53-.58-.53-1.08 0-.2.04-.42.11-.69.07-.26.18-.54.32-.84l.33-.71a6.73 6.73 0 0 0 .32-.73c.37-1.12.66-2.17.86-3.14.19-.96.29-1.83.29-2.6 0-.94-.14-1.66-.42-2.17-.28-.49-.71-.79-1.27-.85-.38.21-.79.51-1.23.9s-.89.89-1.36 1.47c-.49.65-.94 1.17-1.33 1.58s-.72.69-.97.83c-.16.27-.4.58-.74.91-.34.34-.8.7-1.36 1.1-.03.07-.09.17-.16.32s-.18.3-.33.48l-.47-1.23-.58-1.24z"/><path d="M189.72 120.13l.16-.18.07-.27c.46-.66 1.28-1.52 2.44-2.58s1.96-1.92 2.41-2.58c.17-.28.37-.49.6-.62.22-.12.44-.18.66-.18.59 0 1.1.16 1.51.47s.68.79.81 1.41l.33 1.67.26 1.7.43 1.62c.17.72.3 1.13.38 1.24a.78.78 0 0 0 .38.38c.18.08.38.12.64.12.31 0 .62-.05.95-.17.32-.11.65-.31.99-.6l.8-.7.82-.71 1.05 2.47c-.27.28-.64.61-1.09.98l-1.63 1.28c-.7.53-1.3.93-1.79 1.19-.5.27-.87.39-1.13.39-1.55 0-2.55-.19-3.02-.57-.45-.37-.97-1.42-1.53-3.13-.07-.16-.17-.32-.31-.52l-.46-.69c-.21-.41-.38-.72-.54-.92-.15-.21-.28-.31-.39-.31-.27 0-.64.19-1.09.58-.46.38-1.02.96-1.69 1.73l-.32-.83-.41-1.12a1.36 1.36 0 0 0-.13-.3.74.74 0 0 0-.18-.21zm10.68-21.12c.43 0 .74.09.94.27s.3.44.3.78l-.25 1.26-.46 1.58-.29.89c-.16.38-.37.73-.63 1.02s-.59.56-.96.8c-.39.28-.72.48-.99.6-.26.11-.45.16-.55.15l-.83-.1-.78-.04c-.23-.13-.4-.37-.52-.72-.13-.36-.19-.84-.19-1.44 0-.54.31-1.22.94-2.02.62-.81 1.17-1.25 1.65-1.31l1.02-1.28c.17-.13.39-.23.66-.31s.59-.12.95-.12z"/><path d="M204.39 120.13l.16-.18c.07-.26.22-.52.45-.8a4.44 4.44 0 0 1 1-.86l1.32-.91c.31-.24.52-.4.58-.51.16-.19.26-.35.31-.46l.69-.59.93-.91c.12-.09.25-.24.38-.43a5.16 5.16 0 0 0 .41-.67 10.14 10.14 0 0 0 .76-.61l.99-.97 1.45-1.59 1.8-1.8a7.11 7.11 0 0 1 .63-.26c.2-.06.39-.09.58-.09.77 0 1.35.19 1.73.58.38.38.58.93.58 1.65 0 .18-.03.48-.09.89l-.19 1.55-.52 3.29-1.08 3.69c-.14.34-.28.76-.42 1.25l-.53 1.82c.03.07.11.15.25.22.12 0 .33-.12.64-.37a16.2 16.2 0 0 0 1.23-1.09l1.42-1.32.64-.54.56 1.33.44 1.14c-.22.15-.42.3-.6.48a3.62 3.62 0 0 0-.5.59l-1.24.86-1.56 1.04c-.25.27-.6.59-1.04.99l-1.47 1.3-.49.1c-.24.35-.46.6-.68.78-.21.18-.4.31-.58.38l-.82.3-.87.31c-.19-.05-.32-.17-.41-.35s-.12-.41-.1-.69c-.25-.48-.46-1.03-.61-1.66-.16-.62-.24-1.32-.24-2.08 0-.15.01-.29.03-.46l.05-.43-.17-.83c0-.53.19-.97.59-1.33a1.95 1.95 0 0 1 1.34-.52c.25 0 .44.15.55.42s.23.41.34.41c.12 0 .24-.25.38-.73.12-.49.24-1.22.37-2.16l.24-2.14.04-1.4c0-.23-.04-.4-.14-.52-.09-.11-.25-.17-.47-.17s-.94.54-2.15 1.61l-5.08 4.78c-.07.13-.17.27-.3.46l-.45.67c-.07-.27-.19-.6-.37-1l-.68-1.47z"/><path d="M220.43 120.13l.1-.21.4-.54.58-.74c1.22-1.18 2.4-2.58 3.55-4.2 1.16-1.62 2.29-3.49 3.42-5.6.14-.2.3-.46.46-.78l.57-1.2c0-.11-.03-.19-.08-.24s-.14-.08-.26-.08c-.1 0-.26.03-.5.09-.23.06-.4.09-.53.09h-3.2c-.14 0-.36-.01-.68-.03l-.67-.03-.47-.23c-.15-.05-.29-.13-.43-.2a1.12 1.12 0 0 1-.47-.27c-.11-.12-.17-.26-.17-.42 0-1.14.11-2.01.35-2.62.23-.6.58-.9 1.06-.9l1.35.06 1.12.17.72-.16 1.17.05c.33.04.58.08.74.14l.66-.15.71-.15.84.27c.6-.07 1.23-.95 1.91-2.63.67-1.68 1.39-2.52 2.16-2.52.41 0 .73.14.95.4.23.26.34.66.34 1.18 0 .41-.12.95-.35 1.62-.23.68-.36 1.18-.39 1.52a1.18 1.18 0 0 0 .14.23c.06.08.15.17.27.28.11.07.18.19.22.36s.06.38.06.63c0 1.08-.04 1.9-.14 2.49-.1.58-.24.88-.45.9l-1.74.37-.12.66-.21.89-.97 3.39-1.2 4.85-.62 3.63-.22 1.87c0 .28.04.5.13.64a.4.4 0 0 0 .38.22c.1 0 .47-.26 1.11-.78l2.68-2.3 1 2.47c-.17.2-.41.43-.72.7a12.89 12.89 0 0 1-1.1.86c-.17.2-.39.42-.64.66l-.85.85-.91 1.08-.91 1.05c-.41.48-.8.8-1.2 1.01-.39.21-.76.31-1.1.31-.75 0-1.31-.24-1.68-.7-.37-.47-.55-1.18-.55-2.13l.1-2.71c.06-.77.18-1.38.33-1.85l.15-.37c0-.17.03-.42.08-.72l.17-1.07.33-2.09.6-1.36c0-.09-.07-.16-.21-.24l-.25.16c-.25.43-.59.88-1 1.35-.41.48-.9.97-1.46 1.49l-2.67 2.65c-.05.09-.15.22-.28.4-.14.17-.29.4-.46.67l-.32-.82-.41-1.13a1.36 1.36 0 0 0-.13-.3.74.74 0 0 0-.18-.21z"/><path d="M235.48 118.97l2.33-1.59c.09-.09.18-.21.31-.37.12-.15.25-.37.41-.65.12-.24.28-.43.47-.59s.42-.3.68-.43c.13-.17.33-.4.59-.67l.97-.93c.19-.11.43-.27.72-.48.29-.2.6-.48.94-.81 1.56-1.54 2.91-2.69 4.09-3.46 1.17-.77 2.15-1.15 2.96-1.15.45 0 .77.1.98.29.22.2.32.48.32.83 0 .38-.06.7-.19.99s-.32.53-.6.72l-1.38 1.08c-.27.38-.6.77-1 1.19a11.36 11.36 0 0 1-1.38 1.24l-.43.62-.49.48a8.92 8.92 0 0 1-.95.8c-.17.39-.54.91-1.12 1.53-.57.63-1.33 1.38-2.28 2.25-.12.13-.33.41-.65.86l-1.2 1.77.18.24c.38-.13.77-.34 1.18-.64.41-.31.87-.71 1.36-1.21l1.42-1.35.79-.69.35-.21a4.73 4.73 0 0 0 .41-.27c.79-.98 1.52-1.71 2.2-2.18.68-.48 1.31-.71 1.9-.71.36 0 .63.15.81.44.19.29.3.74.33 1.33l-.05 2.57c-.02.58.13 1.09.45 1.54.32.46.73.69 1.23.69.16 0 .31-.05.45-.14.15-.09.3-.21.45-.36l.34-.47.34-.43.3-.19c.12-.09.24-.2.37-.33l.62 1.41a10.11 10.11 0 0 1 .38 1.06l-1.16 1.17c-.38.41-.79.8-1.22 1.15-.52.41-1.01.72-1.49.93a3.49 3.49 0 0 1-1.44.31c-1.1 0-1.96-.33-2.55-.99-.59-.67-.94-1.66-1.05-3.01 0-.16-.03-.32-.06-.49-.04-.16-.14-.34-.27-.52l-.28.28c-.11.1-.23.23-.36.38l-.84.68-1.16.96-1.51 1.58-.87.89c-.34.3-.74.6-1.2.91l-1.52.94-.93.47c-.25.12-.45.17-.56.17-.82 0-1.44-.21-1.83-.63s-.59-1.07-.59-1.96c0-.48.11-.94.31-1.38s.5-.87.9-1.28c.04-.24.05-.42.05-.57a.66.66 0 0 0-.06-.27c-.04-.1-.1-.21-.17-.33l-.35-.85-.42-1.01c.07-.07.17-.21.3-.41l.45-.75zm21.51-18.61c0 .09-.04.2-.11.32a3.68 3.68 0 0 1-.25.4 6.4 6.4 0 0 1-.49.57l-.64.64-.6.55-.62.55-.74.54-.72.48-.76.42c-.23.12-.39.17-.5.17-.34.04-.56.03-.67-.03-.09-.05-.15-.14-.19-.27a.41.41 0 0 0-.22-.26c-.27-.04-.44-.07-.51-.11-.12-.08-.23-.2-.32-.34-.1-.15-.19-.25-.3-.32l-.72-.44c-.22-.13-.38-.2-.48-.2a2.31 2.31 0 0 0-.5.07 3.27 3.27 0 0 0-.5.15c-.21.07-.42.17-.63.3l-.58.39-.41.34-.36.33-.82.8c-.11 0-.25-.04-.39-.11a.96.96 0 0 1-.37-.29c-.07-.07-.15-.16-.24-.27a1.37 1.37 0 0 1-.2-.35.56.56 0 0 1-.08-.27v-.36c0-.14.03-.27.08-.39.05-.1.12-.22.22-.33.09-.12.17-.23.22-.34.06-.14.18-.27.36-.38.17-.12.31-.25.4-.39.05-.07.14-.26.26-.56a2.35 2.35 0 0 1 .33-.3c.11-.08.23-.18.33-.29a3.74 3.74 0 0 0 .46-.44c.15-.17.31-.31.45-.42l.5-.3.5-.26.74-.28c.23-.08.45-.12.66-.12.15 0 .33.05.53.14l.61.28.52.37.51.36a1.74 1.74 0 0 1 .4.36 1.74 1.74 0 0 0 .34.33l.16.4.41-.11c.25-.09.46-.16.59-.24.09-.04.18-.08.27-.14l.27-.16c.1-.05.21-.15.32-.26.11-.12.22-.21.32-.28.15-.07.32-.13.48-.16a1.92 1.92 0 0 0 .46-.13l.85-.42c.25-.11.43-.17.51-.17.31.24.51.41.59.54.07.13.15.36.25.7z"/><path d="M254.34 120.13a3.83 3.83 0 0 0 .38-.49l.45-.68 1.98-1.41a11.01 11.01 0 0 1 1.11-1.15l1.85-1.71a3.55 3.55 0 0 1 .43-.69 6.1 6.1 0 0 1 .7-.77l.72-.65.66-.6.73-.8.71-.78c.27-.25.55-.45.84-.59s.61-.21.95-.21c.38 0 .66.05.86.15.19.1.3.24.31.41l-.53 1.23.15.25 1.77-.68c.43-.14.7-.21.82-.21 1.24 0 2.18.39 2.8 1.19s.94 2 .94 3.6c0 .31-.04.67-.11 1.08a9.18 9.18 0 0 1-.33 1.33c-.17.54-.35.98-.55 1.34-.19.37-.38.62-.55.78.07.2.15.36.24.46a.43.43 0 0 0 .33.15c.13 0 .27-.05.42-.14a4.07 4.07 0 0 0 .53-.4l.5 1.22.5 1.24-.89.84-.93.78c-.39.35-.76.59-1.11.74-.35.16-.69.23-1.03.23-.39 0-.72-.09-.98-.29-.25-.2-.46-.48-.61-.84-.43.59-.94 1.14-1.55 1.64a8.85 8.85 0 0 1-2 1.22 8.89 8.89 0 0 1-1.17.5 2.94 2.94 0 0 1-.95.17c-.09 0-.25.04-.5.11s-.45.11-.6.11c-.97 0-1.86-.43-2.63-1.3-.79-.86-1.18-1.83-1.18-2.89 0-.43.1-1 .28-1.71l.29-1.24c0-.13-.04-.23-.12-.31-.07-.07-.18-.12-.32-.12-.09 0-.29.14-.62.4l-1.37 1.15a2.61 2.61 0 0 0-.18.32c-.07.15-.18.3-.33.48l-.47-1.24a12.42 12.42 0 0 0-.58-1.22zm12.34-4.85c-.09.02-.21.11-.37.28-.17.16-.32.38-.47.63l-.82 1.33c-.19.22-.39.38-.6.49-.21.12-.45.2-.73.26-.18.02-.35.19-.54.52-.18.33-.37.81-.56 1.44l-.41 1.42c-.09.39-.12.72-.12 1 0 .49.11.87.36 1.12.24.25.6.37 1.09.37.79 0 1.5-.23 2.17-.69.66-.46 1.27-1.14 1.85-2.05l.76-.97c.14-.1.25-.27.33-.52a6.77 6.77 0 0 0 .26-.9l.46-1.53c-.15-.53-.3-.96-.43-1.27-.14-.31-.28-.5-.41-.58-.09-.05-.27-.11-.57-.17l-1.25-.2zm33.99 4.31c0-.21-.22-.46-.65-.72-.44-.26-1.11-.57-2.01-.91l-1.62-.5-1.58-.57-.62-.29-.99-.31-1.01-.33a1.33 1.33 0 0 1-.54-.63c-.11-.28-.17-.65-.17-1.12l-.13-.64c0-.31.14-.71.42-1.21.29-.5.7-1.1 1.24-1.8l3.45-4.7 3.11-5.16c.16-.23.3-.52.41-.88 0-.26-.15-.45-.45-.59-.32-.14-.78-.21-1.42-.21-.76 0-1.71.12-2.82.36l-3.89 1.06-1.28.51-.71.23c-.19.06-.37.09-.52.09-.31 0-.53-.08-.67-.24-.15-.16-.22-.41-.22-.75 0-.18.04-.47.13-.86.08-.39.22-.9.41-1.53.24-.8.54-1.48.91-2.03.37-.54.81-.97 1.32-1.27.31-.18.78-.35 1.4-.49.63-.16 1.4-.28 2.3-.39.35-.15.75-.27 1.23-.38.47-.12 1.01-.19 1.64-.23l1.48-.03c.48 0 .98-.03 1.47-.08a5.83 5.83 0 0 1 1.72.2 5.84 5.84 0 0 1 1.67.77c.6.41 1.05.87 1.36 1.37a2.98 2.98 0 0 1 .45 1.58c0 .58-.08 1.1-.25 1.58s-.4.94-.71 1.37l-6.04 8.68c-1.36 2.03-2.04 3.22-2.04 3.57 0 .22.21.45.62.69s1 .51 1.78.82l2.75 1.1 1.76.99c.84.56 1.45 1.18 1.85 1.87.39.69.6 1.46.6 2.32-.2 1.98-1.81 4.18-4.83 6.58l-.67.55-1.01.76-4.93 2.97-.9.22c-.36.08-.74.19-1.16.32l-.82.38c-.2.08-.36.13-.46.13-.39 0-.73-.02-1.02-.05-.28-.04-.52-.09-.7-.18l-1.59.32c-.53 0-.93-.08-1.2-.26-.26-.16-.39-.43-.39-.79 0-.41.3-.8.88-1.15l2.64-1.61 3.74-2.41 5.15-3.56 1.54-1.5.45-.58c.11-.16.17-.29.17-.42zm15.43-6.49c0 .36.24.83.73 1.44.49.59 1.22 1.33 2.19 2.21l1.96 1.62 2.01 1.6 1.13.98 1.62 1.41 1.39 1.07 1.57 1.08 1.26.99 1.58 1.15c.34.22.6.6.8 1.17.18.57.3 1.29.33 2.18l-.23.69-.26.14c-.17 0-.39-.07-.67-.23l-1.07-.66c-.08-.05-.47-.25-1.16-.59l-2.98-1.45c-.72-.32-1.37-.69-1.98-1.09a14.25 14.25 0 0 1-1.64-1.27c-.29-.27-.66-.57-1.11-.89l-1.6-1.04-1.65-1.08-1.1-.86-2.25-1.79c-.59-.41-.98-.62-1.21-.62-.17.26-.26.51-.28.78l-.66 3.17-.75 4.45c0 .31-.05.54-.16.69-.1.16-.25.23-.46.23-.67 0-1.16-.17-1.51-.51-.34-.34-.52-.84-.52-1.53 0-.9.05-1.86.17-2.86a28 28 0 0 1 .55-3.16l.2-1.3.06-1.06c0-.82-.34-1.53-1.02-2.11-.67-.59-1.02-1.01-1.02-1.26 0-.39.05-.74.17-1.03.11-.29.28-.53.5-.7l1.57-1.08c.12-.07.21-.19.25-.36s.06-.41.06-.71v-.58-.58l.13-4.95v-.59l-.05-1.05c-.03-.32-.04-.62-.03-.9l.03-.76-.27-.92c-.08-.26-.11-.51-.11-.74 0-.21.02-.55.05-1.01l.05-.98c0-.25-.03-.59-.07-1.04l-.06-1.01a4.32 4.32 0 0 1 .42-1.86c.28-.59.72-1.16 1.3-1.74.56-.5 1.14-.88 1.72-1.14a4.49 4.49 0 0 1 1.81-.38l1.29.06 1.35.07c.22 0 .83.19 1.82.59l1.05.15a4.73 4.73 0 0 1 .74.2l1 .49c.24.12.4.18.51.2l.75.27c.22.07.39.16.52.27l.79.37 1.01.48c.61.32 1.19.69 1.73 1.12.53.43 1.04.89 1.52 1.39.54.65.95 1.27 1.23 1.89.27.61.41 1.23.41 1.84l-.03.76-.15 1.12c-.04.51-.31 1.07-.76 1.67-.46.59-1.13 1.25-2 1.97-.77.63-1.49 1.15-2.15 1.57s-1.28.71-1.84.9c-.23.16-.39.31-.52.46-.17.17-.52.43-1.08.75l-2.23 1.21-3.63 1.72c-.72.28-1.08.58-1.08.91zm-2.69-12.92l.93-.73c.29-.25.67-.37 1.12-.37.21 0 .46.24.76.71s.45.82.45 1.05c0 .13-.04.41-.12.86l-.41 1.82-.66 3.25c-.05.44-.17 1.12-.34 2.06l-.2.91c0 .16.03.27.09.35a.31.31 0 0 0 .25.11l5.28-2.79c.14-.04.28-.08.44-.15l.44-.2.38-.51 3.08-2.11c.66-.54 1.15-1.06 1.48-1.58.33-.51.49-1.03.49-1.55 0-.66-.37-1.31-1.1-1.96-.74-.64-1.84-1.25-3.3-1.85-1.25-.52-2.39-.9-3.41-1.13-1.02-.25-1.95-.37-2.79-.37-1.09 0-1.92.2-2.47.6-.56.4-.84 1-.84 1.78 0 .6.04 1.06.13 1.38.09.31.2.45.36.41z"/></g><path d="M288.93 73.6l.91.21-.91-.21zm0 0l-1.37-.46 1.37.46zm-184.24-16c.43-.43 1.48.58.54.25-.01 0-1.17.37-.54-.25zm182.87 15.54c-1.72-.15-5.94-1.68-7.71-2.34l-56.71-16.74c11.53-1.26 23.06 3.65 33.52 7.93 5.35 2.19 28.23 8.78 30.91 11.15zm-185.15-19.2c.43-.43 1.48.58.54.25-.01 0-1.17.37-.54-.25zm1.37-.46c.04-.04.13.07.13.13 0 .03.06.06.05.05s-.8.43-.19-.19zm94.18-7.31l1.79.05c-.21.17.48.52-.88.35-.93-.12-.43-.1-.92-.4zm-29.26-.91c4.92 0 4.21-.46 8.69-.46 1.78 0 2.1.45 4.1.47l13.73.9c-9.08 0-17.46-.46-26.52-.46v-.46zm69.95-4.11c1.85 0 4.56.51 5.9 1.25-1.79.16-4.6-.42-5.9-1.25zm-79.09-2.29h22.4c1.79 0 6.43 1.73 10.97 1.83-.51 1.22 1.16.91-4.11.91l-10.51-.46c-3.48 0-7.48.42-10.79-.18-6.82-1.25-14.63.4-21.59-.39 1.32-1.11 7.47-1.15 10-1.24 1.85-.06 1.82-.47 3.64-.47zm23.45-5.49c1.52.77 1.88-.08 3.67.92-2.22 1.21-11.13.58-14.33.63-4.84.07-9.12.61-13.7.75-4.89.15-9.58-.31-14.64.14-4.27.38-8.53 1.2-12.81 1.68-17.46 1.96-42.14 11.23-46.18 11.78-2.97.31-2.03 1.29-4.76 2.2-1.75.58-3.2.97-5 1.86-2.15 1.07-7.85 3.78-9.9 4.27l-.91.46-.91.46-2.74 1.37c-1.3 1.15-5.19 3.01-7.01 3.97l-14.2 8.65c-1.63 1.09-6.31 3.03-6.22 4.75l-.38 1.08c-2.36.66-2.29.74-1.93 3.07 3.14.54 3.64-.87 6.14-2.05-.29 3.01-1.83.95-3.62 4.64a8.94 8.94 0 0 0 2.2 3.22l1.72-.11c1.11-.06 13.1-7.38 14.99-8.57 9.28-5.85 41.88-20.27 51.75-20.48l-14.48 5.18c-5.1 1.97-20.04 7.75-23.01 10.37 1.7-.14 9.61-3.88 11.59-4.87 9.46-4.71 29.03-9.47 39.57-11.18l26.08-3.18c6.95-.78 38.65-.98 45.4.38 11.8 2.38 32.02 5.52 42.23 8.06 2.65.66 3.87 1.25 6.93 1.76 23.14 3.87 25.73 7.98 44.39 14.59 2.9 1.02 5.16 2.26 6.46 1.93 2.65.47 2.88.87 5.86.63l.42-1.95c-2.05-1.38-1.2.37-2.31-1.59l-1.61-1.1c.86-1.18.5-.2.72-1.52l-1.25-1.03-.92-.22.92-.02h3.59c.65-1.27 4.94-4.45 4.95-4.46.47-2.44.39-2.74 1.68-4.67 1.65-.26 1.83.08 3.04-.7.15-1.25-2.75-2.29-4.16-3.01-1.73-.88-.97-.38-1.58-1.65-4.73-4.22-42.48-15.9-50.95-18.23-9.69-2.67-18.11-5.13-28.35-6.33-11.15-1.3-21.1-2.28-32.46-2.37-1.91.55-1.83.5-3.97.5z" fill="#fef505"/><path d="M16.92 58.97l-.46.46.46-.46zM172.17 0h9.41c5.02.15 10.09.47 11.53.73 1.27.23 1.75.1 3.02.18 1.55.11 1.2.35 2.74.46 8.42.58 19.14 1.45 27.32 2.85 3.47.6 6.63.97 10.07 1.81 6.17 1.51 12.38 3.28 18.2 5.57 5.85 2.3 12.33 3.87 18.01 6.22 5.48 2.27 12.26 4.25 18.01 6.22 6.55 2.25 29.63 11.26 33.11 14.81l.45.81c-1.88.84-2.88 3.04-3.69 4.98-3.18.5-2.53.87-4.04 2.88l-2.12.17-2.86-.92-56.29-19.63c-8.82-3.12-22.51-6.04-31.47-6.79-11.99-1.01-22.96-2.76-35.21-2.77-2.11-.39-6.68-1.13-8.76-.29-.64.26-.52.31-.84.53l11.1.46 2.45 1.36c-2.53 1.38-7.67.44-10.8.46-9.04.07-25.55-.22-32.93.21-7.19.42-13.18 1.78-19.18 2.45-6.48.73-12.2 2.61-18.76 3.27l-.91.38-1.37.13-.46.29-1.83.19-.46.31-.91.05c-1.86.06-.9-.13-1.83.49-1.9.01-.89-.16-1.83.46-2.58.05-7.59 1.79-10.23 2.57-2.54.75-6.98 2.7-9.43 2.92 1.73-1.53 17.01-6.36 20.94-7.4l5.41-1.45a18.66 18.66 0 0 0 .99-.38c.06-.03.23-.05.28-.18.04-.13.18-.13.27-.19-3.4 0-10.51 2.05-13.9 3.02-18.35 5.22-41.39 14.94-57.34 25.41-6.4 4.2-13.89 8.26-19.58 13.17l.18-1.48c-1.16-1.15-2.25-2.37-2.67-4l.5-.91-1.37.91c-1.34.36-.96.05-1.83 1.37-1.39.38-2.8 1.69-3.89 2.74l.44-1.41-1.12-.61c1.37-1.5 6.44-6.11 8.05-7.3 1.5-1.11 2.42-2.39 4.11-3.66 9.17-6.81 12.39-9.41 23.19-15.67 11.41-6.61 30.41-16.26 42.55-19.63 3.91-1.09 7.77-2.56 11.77-3.78 4.08-1.25 8.13-2.22 12.29-3.26l26.42-4.67c9.82-1.47 19.34-1.27 29.81-1.27l29.68.34c-1.48-.73-15.62-2.12-19.65-2.59-2.17-.25-5.01.64-6.75-.65.3-.14 1.02-.24 2.02-.3zM17.38 58.52l-.46.46.46-.46zm.91-.46l-.91.46.91-.46zm.46-.46l-.46.46.46-.46zm.91-.46l-.91.46.91-.46zm.46-.46l-.46.46.46-.46zm0 0l1.37-.91-1.37.91zm1.37-.91l1.37-.91-1.37.91zm1.37-.91l1.37-.91-1.37.91zm1.37-.91c.91-1.39 1.14-1.44 2.74-1.83-.72 1.01-1.61 1.52-2.74 1.83zm2.74-1.83l1.37-.91-1.37.91zm1.37-.91l1.37-.91-1.37.91zm1.37-.91l1.37-.91-1.37.91zM32 48.93l-.91.46.91-.46zm.46-.46l-.46.46.46-.46zm.91-.46l-.91.46.91-.46zm0 0l.12-.42.34.26-.46.15zm1.83-1.37l-.12.42-.34-.26.46-.15zm0 0l.12-.42.34.26-.45.15zm74.52-22.86l1.34.06c-1.81.98-1.2.02-1.34-.06zm3.16-.34l-1.32.4c.64-.56-.86-.49 1.32-.4zm-4.53-3.32c-.47.3.18.89-1.33.12l1.33-.12zm0 0c.82-.52.25-.88 1.79-.12l-1.79.12zm96.92-5.03l2.71.04-2.7.47v-.51zm-2.29-.46c.43-.43 1.48.58.54.25-.01 0-1.17.37-.54-.25zm-29.72-1.37l25.15.91c1.63.11 1.67.46 3.65.46l-14.27-.36c-2.68-.42-8.17.11-10.88-.09-1.64-.12-1.67-.46-3.65-.46v-.46zm71.77-2.74c2.06 0 2.1-.33 3.62.8l-3.6-.45-.02-.35zm-.95-.34l-1.32.4c.64-.56-.86-.49 1.32-.4zm-90.94-2.86l24.69-.46c6.44 0 16.28 2.29 21.03 2.29v.46c-1.83 0-3.66-.01-5.49 0l-40.23-2.29z" fill="#da2d22"/><path d="M26.06 68.57l-.91.46.91-.46zm.46-.46l-.46.46.46-.46zm.91-.46l-.91.46.91-.46zm.46-.46l-.46.46.46-.46zm.91-.46l-.91.46.91-.46zm0 0l1.37-.91-1.37.91zm2.29-1.37l-.91.46.91-.46zm.46-.46l-.46.46.46-.46zm.91-.46l-.91.46.91-.46zm0 0l.12-.42.34.26-.45.15zm1.37-.91l-.12.42-.34-.26.46-.15zm.91-.46l-.91.46.91-.46zm0 0l.12-.42.34.26-.46.15zm1.37-.91l-.12.42-.34-.26.45-.15zm0 0l.12-.42.34.26-.46.15zm-5.49-2.29l.42.12-.26.34-.15-.46zm2.74-1.83l.42.12-.26.34-.15-.46zm16.92-9.6l-.91.46.91-.46zm.91-.46l-.91.46.91-.46zm.91-.46l-.91.46.91-.46zm0 0l.12-.42.34.26-.45.15zm.91-.91c.04-.04.13.07.13.13 0 .03.06.06.05.05s-.8.43-.19-.19zm.91-.46c.04-.04.13.07.13.13 0 .03.06.06.05.05s-.8.43-.19-.19zm.91-.46c.04-.04.13.07.13.13 0 .03.06.06.05.05s-.8.43-.19-.19zm.91-.46c.04-.04.13.07.13.13 0 .03.06.06.05.05s-.8.43-.19-.19zm.91-.46c.04-.04.13.07.13.13 0 .03.06.06.05.05s-.8.43-.19-.19zm1.37-.46l-.12.42-.34-.26.46-.15zm53.49-3.66c.82-.52.25-.88 1.79-.12l-1.79.12zm-4.11-3.66c.43-.43 1.48.58.54.25-.01 0-1.17.37-.54-.25zm3.2-.46c-.47.3.18.89-1.33.12l1.33-.12zm0 0c.47-.3-.18-.89 1.33-.12l-1.33.12zm97.38-4.57c1.47 0 5.44.34 6.36.8-1.83.2-5.09.01-6.36-.8zm-30.63-1.83l22.42.9c2.47.08 2.24.47 7.76.47v.46h-7.78c-1.58-.12-1.72-.45-3.64-.48l-11.45-.44c-2.54 0-5.25.4-7.32-.91zm70.86-2.74c2.5 0 6.56.34 8.23 1.83-1.33-.12-7.53-1.39-8.23-1.83zm0 0l-2.25-.04c1.28-.71 1.21-.62 2.25.04zm-94.63-3.2l9.11-.03c6.58-.77 13.15-.43 20.15-.43 1.56 0 2.65.38 4.58.45 1.32.05 9.53 1.84 14.16 1.84l-17.84.01c-2.36 0-3.44-.48-5.93-.47l-24.23-1.37zm46.63-3.66l2.71.04-2.7.47v-.51zm-10.39-2.29l2.45 1.36c-2.53 1.38-7.67.44-10.8.46-9.04.07-25.55-.22-32.93.21-7.19.42-13.18 1.78-19.18 2.45-6.48.73-12.2 2.61-18.76 3.27-.34.57.64.56-.91.38l-1.37.13-.46.29-1.83.19-.46.31-.91.05c-.92.65.21.48-1.83.49-.94.62.07.45-1.83.46-2.03 1.41-8.79 2.56-11.83 3.71-2.4.91-9.94 3.88-11.94 4.06-.82.57-17.72 7.88-19.2 8.23-.63-.82-1.1-.17-2.28.45-1.06.56-1.6.72-2.57 1.1-1.74.7-3.76 1.5-4.75 3.02h.91l-.91.46-.91.46c-1.88 1.68-4.8 2.88-7.13 4.3-1.19.73-2.47 1.48-3.66 2.29-2.01 1.37-2.08.48-3.38 1.64-1.27.34-1.83 1.01-2.74 1.83-1.39.92-2.45 2.1-4.11 3.2-1.54 1.02-3.03 1.82-4.31 3.2l.35 1.94c1.43.9.43.32 1.91.8h.68l-.46.46-.2.46c-.79 2.14.64 1.14.42 3.89l3.9.36c1.85-.71 13.48-8.27 18.29-10.65 6.5-3.22 13.26-6.83 19.8-9.46 7.08-2.85 13.66-5.6 20.83-7.97 4.77-1.58 19.26-5.42 23.83-5.43-1.09.7-10.93 3.11-13.43 3.94-3.07 1.03-10.79 2.97-13.09 4.64 4.04-.56 28.72-9.82 46.18-11.78 4.27-.48 8.53-1.3 12.81-1.68 5.06-.45 9.74.01 14.64-.14 4.58-.14 8.86-.68 13.7-.75 3.2-.04 12.11.59 14.33-.63-1.8-1-2.15-.15-3.67-.92-2.11-.17-4.94-.64-7.03-.88-2.37-.28-5.2.12-7.7-.15 1.65-.77 17.31-.27 18.7.53 11.36.08 21.31 1.07 32.46 2.37 10.25 1.19 18.66 3.65 28.35 6.33 8.47 2.34 46.22 14.01 50.95 18.23l1.42.11c7.97 1.74 5.14 1.18 7.63-1.72.48-.56 1.74-1.65 2.31-2.26 1.08-1.16.69-1.61 2.48-3.46 1.19-1.24.68-.13 1.31-1.9l1.9-.44c-1.19-.55-3.68-2.19-4.47-3.33l-56.29-19.63c-8.82-3.12-22.51-6.04-31.47-6.79-11.99-1.01-22.96-2.76-35.21-2.77l3.16.3-1.67.39z" fill="#039adc"/><path d="M317.73 80.92l-.42-.12.26-.34.15.45zm-6.86 2.03c1.49 1.94 9.42 6.28 12.27 6.12-.03-2.57-3.61-2.92-5.29-4.61l-.12-3.54 8.17 5.12c1.33-2.01 2.1-1.4 2.39-3.79-2.52-1.96-8.02-3.7-9.6-6.7 2.56.38 7.54 4.47 10.97 5.41 1.61-.95 2.8-2.13 3.04-4.04-1.99-1.57-11.6-6.9-13.65-7.43.29 2.89-.3.44 1.21 3.39l-3.37.93.44 2.45-2.84 2.33c.39 2.56.14.17.97 2.35-2.31 1.09-1.24.05-3.21 2.26l-1.38-.25z" fill="#fbf8af"/><path d="M330.07 67.66l-.42-.12.26-.34.15.45zM321.84 69c1.16 1.69 11.01 6.61 12.68 6.77l.96-.94c-.89-1.27-3.53-2.29-5.3-4.09l-.12-3.08c1.54.42 4.71 3.43 7.35 4.15 1.37-.81 1.78-1.48 2.78-2.78-2.31-2.79-7.59-3.77-9.18-6.74l6.24 3.08.16-2.58 2.44-.95-3.41-2.74-4.78-2.51c.36 4.72.09 1.25-2.32 5.37-1.05 1.8-.92 1.71-2.89 2.55l-.19 2.08-1.65.17-.52 2.09-2.27.16z" fill="#acdaf0"/><path d="M303.56 61.03v.72h.46l.91.43 10.97 3.42 2.88-.53c.12-2.27.32-1.98 1.9-3.19 3.82-2.92-.31-2.03 4.01-3.76l.16-2c2.15-.65 1.49-.77 1.93-1.32l.55-.7c-1.56-.58-4.81-1.79-5.49-3.14-2.31-.18-3.22-1.06-5.26-1.56 1.17 1.26 1.64.93 2.63 2.7-1.32 2.59-.09.7-2.1 2.12-.42 1.69-1 2.37-2.28 3.28-1.36.96-1.75 1.86-3.23 2.3 1.25 3.59-1.51-.23.16 3.22-2.51.07-5.94-.89-8.21-1.97z" fill="#50b6e8"/><path d="M291.21 74.28v.24c1.48.13 2.77.82 4.11 1.37l2 .78c1.88.59.9.43 2.12.14l2.57-.25c1.44-1.86-.71-1.42 2.3-1.74l-.27-1.78 2.04.34c.11-2.19-.08-2.52 1.52-3.99 1.67-1.53.96-1.95 3.46-2.01l-.18-1.55c.13-.73.7-.03-.87-.93-.48-.28-1.33-.63-1.88-.9-1.24-.61-2.29-1.03-3.2-1.83l-.91-.43h-.46l-.46-.4-2.93-1.43-1.42-.11c.62 1.27-.14.76 1.58 1.65 1.41.72 4.31 1.75 4.16 3.01-1.21.78-1.39.43-3.04.7-1.3 1.93-1.21 2.23-1.68 4.67-.01.02-4.3 3.2-4.95 4.46h-3.59z" fill="#fcf737"/><path d="M315.9 65.59c1.07 1.36 1.29 1.03 2.9 1.91 1.5.83 1.22 1.11 3.04 1.5l2.27-.16.52-2.09 1.65-.17.19-2.08c1.97-.84 1.84-.75 2.89-2.55 2.41-4.13 2.68-.65 2.32-5.37l-2.06-1.25-.46-.47-.91-.46-.91-.32-.55.7c-.44.55.22.68-1.93 1.32l-.16 2c-4.32 1.73-.18.84-4.01 3.76-1.58 1.21-1.78.93-1.9 3.19l-2.88.53z" fill="#72c5ec"/><path d="M305.38 79.55c.62 1.44 1.06 1.19 2.6 1.97 1.45.74 1.32 1.15 2.89 1.43l1.38.25c1.97-2.21.9-1.17 3.21-2.26-.83-2.18-.58.21-.97-2.35l2.84-2.33-.44-2.45 3.37-.93c-1.52-2.95-.93-.5-1.21-3.39l-4.52-2.29.57 3.72-3.26.42c.18 1.59-.2.26.61 1.5-1.67 1.15-.3.36-1.52 1.76l-4.17 5.21-1.39-.27z" fill="#fdf978"/><path d="M299.44 76.81c.68 1.57 1.09 1.19 2.81 1.77 1.49.5 1.75 1.08 3.14.98l1.39.27 4.17-5.21c1.22-1.4-.15-.62 1.52-1.76-.81-1.25-.43.08-.61-1.5l3.26-.42-.57-3.72c-1.72-.8-1.63-1.06-3.66-1.37l.18 1.55c-2.5.06-1.8.48-3.46 2.01-1.6 1.47-1.41 1.79-1.52 3.99l-2.04-.34.27 1.78c-3.01.32-.86-.13-2.3 1.74l-2.57.25z" fill="#fdf957"/><path d="M25.6 87.78l1.37-.91-1.37.91zm1.37-.91c.87-1.32.48-1.01 1.83-1.37-.87 1.32-.48 1.01-1.83 1.37zm1.83-1.37l.12-.42.34.26-.46.15zm1.37-.91l-.12.42-.34-.26.45-.15zm-10.22 2.74l-.26 1.72c.38.05.45.17 1.34 1.24 2.06-.4 2.34-1.89 4.57-2.5-1.79 2.71-7.58 5.31-9.52 8.07 1.57 1.15 2.3-.5 4.49-1.35 4.79-3.32 5.16-4.9 11.75-5.18l.46-1.02c-1.5-.56-.61.01-1.98-.88l-.4-2.84h-.23l-.17-.46c-1.44-.6-.54.29-2.2-.91.04-3.43.95-1.83 2.15-4.12-.55.2-4.44 3.16-5.15 3.77-1.41 1.22-4.46 2.88-4.85 4.46z" fill="#fdf968"/><path d="M321.84 49.83l-.42-.12.26-.34.15.46zm1.37-5.03l-.42-.12.26-.34.15.46zm-9.02 2.9c1.42 1.66 1.02.22 2.4 1.68 2.04.5 2.95 1.39 5.26 1.56v-1.12h.7c1.5-1.4-.04 1.09 1.4-.75.31-.39-.1-.2.56-.69.25-.19 1.16-.7 1.46-.87l-2.41-1.69-.33-1.02c2.05.5 2.95 1.41 4.57 2.29.88-1.55.06-.01.47-2.26l1.63-.68c-.32-2.26-.01-.01.28-2.09l-6.59-3.2.45.81c-1.88.84-2.88 3.04-3.69 4.98-3.18.5-2.53.87-4.04 2.88l-2.12.17z" fill="#e2524b"/><path d="M300.17 59.91l2.93 1.43.46-.31c2.27 1.08 5.7 2.04 8.21 1.97-1.67-3.44 1.09.38-.16-3.22 1.48-.43 1.87-1.34 3.23-2.3 1.28-.91 1.87-1.59 2.28-3.28 2.01-1.41.78.48 2.1-2.12-.99-1.77-1.45-1.44-2.63-2.7-1.37-1.46-.98-.03-2.4-1.68l-2.86-.92c.78 1.14 3.28 2.79 4.47 3.33l-1.9.44c-.63 1.77-.12.66-1.31 1.9-1.79 1.86-1.4 2.3-2.48 3.46-.57.62-1.83 1.71-2.31 2.26-2.5 2.9.34 3.45-7.63 1.72z" fill="#2fabe6"/><path d="M289.38 81.09c1.32 1.46 8.37 3.59 10.24 4.22 3.41 1.17 7.42 3.14 11.17 2.84-.66-3.99-15.21-9.81-17.44-9.98 1.11 1.96.27.21 2.31 1.59l-.42 1.95c-2.98.24-3.21-.16-5.86-.63z" fill="#fdf968"/><path d="M333.25 49.83c1.19 1.01 6.17 3.73 7.81 4.11l.77-.6.22-.22c3.16-3.22.95-.95 2.18-2.79-2.11-2.07-5.37-3.55-8.17-5.08l-1.54 3.17c-.64-.67-.28-.6-.82-.42l-.46 1.82z" fill="#e4a699"/><path d="M329.61 55.31v.02l2.06 1.25 4.78 2.51c1.28.37 6.49 2.95 7.38 3.54 1.16-.34 2.36-2.03 3.07-3.04-1.73-1.38-7.12-4.93-9.06-4.98-.75 1.68.57.95-1.36 2.15-.88.55-1.63.65-2.61.37-1.49-.42-2.53-1.74-4.26-1.81z" fill="#f3cece"/><path d="M29.95 79.09c-1.2 2.29-2.1.69-2.15 4.12 1.66 1.2.76.31 2.2.91.78 0 .73-.21.4.46l.4 2.84c1.37.9.48.32 1.98.88l-.46 1.02 1.51.54c1.32-.73 2.96-1.48 3.66-2.75l-1.72.11c-.89-.79-1.78-2.12-2.2-3.22 1.8-3.69 3.34-1.63 3.62-4.64-2.49 1.18-3 2.59-6.14 2.05-.36-2.33-.43-2.41 1.93-3.07l.38-1.08c-1.31-.06-2.48.92-3.42 1.83z" fill="#fbf627"/><path d="M22.4 70.86l-1.37.91-1.37.91-.46.46-.91.46-.46.46v.36c2.61 1.47.36 2.79 4.11 4.02 1.3-.08 2.09-1.04 3.38-1.91 1-.67 2.79-1.56 3.47-2.33l-3.9-.36c.22-2.76-1.21-1.76-.42-3.89h-.71l-1.37.91z" fill="#2fabe6"/><path d="M341.06 53.94l7.32 4.15 2.59-2.99c-1.04-1.51-4.9-4.38-6.73-4.77-1.23 1.84.97-.43-2.18 2.79l-.22.22-.77.6z" fill="#f3cece"/><path d="M13.26 61.72l-2.74 2.84c1.16.71 1.07.77 1.62 1.81.57 1.09.53 1.14 1.93 1.03l-.04 1.18 4.43-2.74.18-1.48c-1.16-1.15-2.25-2.37-2.67-4h-.87c-.87 1.32-.48 1.01-1.83 1.37z" fill="#df645b"/><path d="M327.79 47.09l5.46 2.74.46-1.82c.53-.17.18-.25.82.42l1.54-3.17-5.9-3.2c-.29 2.08-.6-.17-.28 2.09l-1.63.68c-.41 2.25.41.71-.47 2.26z" fill="#e8736e"/><path d="M5.94 68.55l1.02.34 1.6 3.07-.33.73c1.2-.32 5.27-3.05 5.79-4.11l.04-1.18c-1.4.11-1.35.07-1.93-1.03-.55-1.04-.46-1.09-1.62-1.81-1.49.77-3.5 3-4.57 3.99z" fill="#ec928e"/><path d="M322.54 49.83c1.41 1.42 3.77 3.4 5.7 3.94 3.25-.51 1.59-1.36 5.03-2.18l-7.31-4.08-1.46.87c-.66.49-.25.3-.56.69-1.44 1.84.1-.64-1.4.75z" fill="#e8736e"/><path d="M328.24 53.77v.63l.91.46.46.45c1.73.07 2.77 1.39 4.26 1.81.98.28 1.73.18 2.61-.37 1.93-1.2.61-.48 1.36-2.15-.76-1.37-3.1-2.51-4.57-3.01-3.44.82-1.78 1.67-5.03 2.18z" fill="#e4a699"/><path d="M337.26 65.37l4.24 1.96 2.79-3.28-.46-1.42c-.89-.58-6.1-3.17-7.38-3.54l3.41 2.74-2.44.95-.16 2.58z" fill="#cde8f4"/><path d="M15.54 72.14c.99 1.32.6 1.56.91 2.31l.46.07.91-.46.46-.46.91-.46.46-.46 1.37-.91 1.37-.91 1.37-.91.91-.46-.22-.46c-1.47-.48-.48.1-1.91-.8l-.35-1.94-6.66 5.85z" fill="#2fabe6"/><path d="M16.46 74.97l-.46.46-1.37.91-.48.91c1.22 1.97 2.33 2.75 4.01 4.11l3.79-2.94c-3.75-1.23-1.51-2.55-4.11-4.02l-.91.1-.46.46z" fill="#72c5ec"/><path d="M8.23 72.69l.33-.73-1.6-3.07-1.02-.34-4.72 4.52 2.37 2.5c1.76-1.09 3.52-1.19 4.64-2.89z" fill="#e3bbc4"/><path d="M9.73 80.46l.29 1.01.66-.48c.74.6 1.9 1.72 2.66 2.49l.12 1.1 4.69-3.2c-1.67-1.36-2.78-2.14-4.01-4.11l-4.42 3.2z" fill="#acdaf0"/><path d="M14.63 76.35l1.37-.91.46-.46v-.52c-.32-.74.07-.99-.91-2.31-3.12 1.92-3.91 3.76-7.4 6.4-1.65 1.25-1.8 1.36-1.62 3.25l8.11-5.45z" fill="#8fd0ef"/><path d="M21.03 90.28c-.89-1.07-.96-1.19-1.34-1.24l.26-1.72c-2.73 1-4.17 3.3-5.86 5.49l1.03 1.75c1.68-.3 4.88-2.97 5.9-4.28z" fill="#fbf8af"/><path d="M13.46 84.57l-.12-1.1-2.66-2.49-.66.48-.29-1.01-2.54 2.69 2.94 3.7c1.49-.82 2.5-1.02 3.34-2.28z" fill="#cde8f4"/><path d="M9.36 64.46l.44-1.41-1.12-.61C6.69 64.31.57 69.19-.01 71.32c1.14-.31 8.15-5.69 9.36-6.86z" fill="#e4a699"/><path d="M47.09 65.83c3.73-.9 10.38-5.65 13.71-5.94l1.37-1.37c-2.46.21-13.61 5.25-15.09 7.31z" fill="#2c8f92"/><path d="M22.9 99.54c1.93-.23 4.5-2.19 5.41-3.88-2.39-.21-.96-.18-2.97 1.44-.92.74-1.72 1.45-2.43 2.44z" fill="#d3cf8a"/><path d="M28.34 77.26c1.68-.41 6.33-3.19 7.32-4.57-1.69.15-6.3 3.15-7.32 4.57z" fill="#589f96"/><path d="M11.46 118.37c.66-1.14.43-2.96.43-4.53h-.46l.03 4.53z" fill="#8b7396"/><path d="M62.17 58.52h1.37l.91-.46v-.46c-1.53.13-1.2-.05-2.29.91z" fill="#5ca261"/><path d="M63.09 75.43c1.5-.13 1.85-.12 2.74-1.37l-2.74 1.37z" fill="#d3cf8a"/><path d="M11.58 121.13l.33-2.27h-.48z" fill="#a89f9b"/><path d="M14.17 70.86l-1.35.5c.97.46.46.74 1.35-.5z" fill="#89868a"/><path d="M35.66 72.69l1.35-.5c-.97-.46-.46-.74-1.35.5z" fill="#5ca261"/><path d="M65.37 57.6l-.41-.57-.5.57z" fill="#9aa35b"/><path d="M48.46 49.37v-.45l-.91.45z" fill="#2c5165"/><path d="M13.71 86.86l-.41.12.26.34z" fill="#d5afaf"/><path d="M28.34 77.26l-.41.12.26.34z" fill="#5ca261"/><path d="M14.17 86.4l.42-.11-.26-.34z" fill="#a3cdda"/><use href="#B" fill="#93b7d0"/><use href="#B" x="1.83" y="-16.92" fill="#6a6a8c"/><use href="#B" x="37.49" y="-40.23" fill="#25192e"/><use href="#B" x="-0.91" y="0.46" fill="#93b7d0"/><path d="M79.09 34.74l.91-.21z" fill="#2b2a57"/><path d="M79.09 34.74l-.91.46z" fill="#2c5165"/><path d="M16 69.49l-.46.46z" fill="#6c6771"/><path d="M14.17 70.86l1.37-.91z" fill="#89868a"/><path d="M66.75 73.6l-.92.46z" fill="#d3cf8a"/><path d="M16 69.49l.91-.21z" fill="#6c6771"/><path d="M14.17 86.4l-.46.46z" fill="#d5afaf"/><path d="M81.37 33.83l-.91.21z" fill="#322b4b"/><path d="M47.09 65.83l-.92.21z" fill="#5ca261"/><g fill="#2c5165"><path d="M47.55 49.83v-.46zm29.71-13.71v-.46z"/><path d="M78.18 35.2l-.92.46z"/></g><defs ><path id="B" d="M16 85.49c.04.04.13-.19.13-.13 0 .03.06-.06.05-.05s-.8-.43-.19.19z"/></defs></svg>